<?xml version="1.0" encoding="UTF-8" standalone="no"?>
<!DOCTYPE svg PUBLIC "-//W3C//DTD SVG 1.1//EN" "http://www.w3.org/Graphics/SVG/1.1/DTD/svg11.dtd">
<svg width="100%" height="100%" viewBox="0 0 800 800" version="1.1" xmlns="http://www.w3.org/2000/svg" xmlns:xlink="http://www.w3.org/1999/xlink" xml:space="preserve" xmlns:serif="http://www.serif.com/" style="fill-rule:evenodd;clip-rule:evenodd;stroke-linejoin:round;stroke-miterlimit:2;">
    <g transform="matrix(-25,0,-0,-25,1150,950)">
        <rect x="20" y="18" width="6" height="2" style="fill:rgb(243,244,244);"/>
    </g>
    <g transform="matrix(-25,0,-0,-25,1350,1350)">
        <rect x="24" y="26" width="6" height="2" style="fill:rgb(243,244,244);"/>
    </g>
    <g transform="matrix(-25,0,-0,-25,1250,1150)">
        <rect x="22" y="22" width="6" height="2" style="fill:rgb(243,244,244);"/>
    </g>
    <g transform="matrix(25,0,0,25,0,0)">
        <path d="M17.003,20C16.988,18.286 16.074,16.699 14.599,15.827L22,3L20.269,2L12.693,15.126C10.806,14.704 8.828,15.271 7.45,16.629C3.706,20.24 3.996,28.682 4.01,29.04C4.031,29.573 4.476,30 5.01,30L20.001,30C20.55,30 21.001,29.549 21.001,29C21.001,28.685 20.853,28.389 20.601,28.2C17.061,25.544 17.003,20.054 17.003,20ZM11.93,16.997C13.583,17.015 14.947,18.348 15.004,20C15.004,20.038 15.006,20.208 15.021,20.469L9.121,17.845C9.906,17.198 10.918,16.892 11.93,16.997ZM15.449,28C14.65,27.186 14.141,26.132 14,25L12,25C12.072,26.064 12.404,27.095 12.968,28L10.745,28C10.334,26.702 10.084,25.359 10,24L8,24C8.065,25.355 8.288,26.697 8.665,28L6,28C6.031,26.164 6.29,22.108 7.803,19.447L15.336,22.797C15.698,24.677 16.47,26.453 17.597,28L15.449,28Z" style="fill:rgb(243,244,244);fill-rule:nonzero;"/>
    </g>
    <g id="_Transparent_Rectangle_" transform="matrix(25,0,0,25,0,0)">
        <rect x="0" y="0" width="32" height="32" style="fill:none;"/>
    </g>
</svg>
